<svg xmlns="http://www.w3.org/2000/svg" fill="var(--colorText)" width="50px" height="50px" viewBox="0 0 500 500"><path d="M250.427 0 10.977 120.1l236.894-86.028V442.31h86.918l.852-277.689 153.385 49.405V121.809Z" fill="var(--colorPrimary)"></path><path d="M13.864745,416.82167C14.07181,404.22034 14.24608,352.19912 14.25201,301.21896l0.01078,-92.6912 3.186369,-0.89881C25.399055,205.38643 138.28089,174.84648 151.84327,171.2689l8.00149,-2.11069 0.23378,5.86022c0.12859,3.22313 0.28115,28.25585 0.33903,55.62827 0.0579,27.37243 0.28863,85.6147 0.51278,124.42727l0.40754,84.22675H87.413079 13.488262Z" fill="var(--colorPrimary)" style="filter: brightness(0.8)"></path><path d="M233.9705,499.73542C180.3223,498.30733 126.7443,490.41247 63.120447,474.56019 45.969918,470.28703 17.208503,462.57065 16.74108,462.11711c-0.139087,-0.13496 105.42076,-0.2219 234.57743,-0.19321 145.28725,0.0323 234.13603,0.26679 233.00953,0.61503-5.60844,1.73378-41.06323,10.77375-54.32,13.85007-67.02134,15.55275-118.35765,22.4304-173.88469,23.29575-8.34525,0.13006-18.31403,0.15286-22.15285,0.0507z" fill="var(--colorPrimary)" style="filter: brightness(0.5)"></path></svg>